HIERARCHY
ROOT hip
{
  OFFSET 0 0 0
  CHANNELS 6 Xposition Yposition Zposition Zrotation Yrotation Xrotation
  JOINT abdomen
  {
    OFFSET 0 20.6881 -0.73152
    CHANNELS 3 Zrotation Xrotation Yrotation
    JOINT chest
    {
      OFFSET 0 11.7043 -0.48768
      CHANNELS 3 Zrotation Xrotation Yrotation
      JOINT neck
      {
        OFFSET 0 22.1894 -2.19456
        CHANNELS 3 Zrotation Xrotation Yrotation
        JOINT head
        {
          OFFSET -0.24384 7.07133 1.2192
          CHANNELS 3 Zrotation Xrotation Yrotation
          JOINT leftEye
          {
            OFFSET 4.14528 8.04674 8.04672
            CHANNELS 3 Zrotation Xrotation Yrotation
            End Site
            {
              OFFSET 1 0 0
            }
          }
          JOINT rightEye
          {
            OFFSET -3.6576 8.04674 8.04672
            CHANNELS 3 Zrotation Xrotation Yrotation
            End Site
            {
              OFFSET 1 0 0
            }
          }
        }
      }
      JOINT rCollar
      {
        OFFSET -2.68224 19.2634 -4.8768
        CHANNELS 3 Zrotation Xrotation Yrotation
        JOINT rShldr
        {
          OFFSET -8.77824 -1.95073 1.46304
          CHANNELS 3 Zrotation Xrotation Yrotation
          JOINT rForeArm
          {
            OFFSET -28.1742 -1.7115 0.48768
            CHANNELS 3 Zrotation Xrotation Yrotation
            JOINT rHand
            {
              OFFSET -22.5879 0.773209 7.07136
              CHANNELS 3 Zrotation Xrotation Yrotation
              JOINT rThumb1
              {
                OFFSET -1.2192 -0.487915 3.41376
                CHANNELS 3 Zrotation Xrotation Yrotation
                JOINT rThumb2
                {
                  OFFSET -3.37035 -0.52449 3.41376
                  CHANNELS 3 Zrotation Xrotation Yrotation
                  End Site
                  {
                    OFFSET -1.78271 -1.18214 1.43049
                  }
                }
              }
              JOINT rIndex1
              {
                OFFSET -7.75947 0.938293 5.60832
                CHANNELS 3 Zrotation Xrotation Yrotation
                JOINT rIndex2
                {
                  OFFSET -2.54057 -0.884171 1.56538
                  CHANNELS 3 Zrotation Xrotation Yrotation
                  End Site
                  {
                    OFFSET -1.62519 -0.234802 1.16502
                  }
                }
              }
              JOINT rMid1
              {
                OFFSET -8.24714 1.18213 3.41376
                CHANNELS 3 Zrotation Xrotation Yrotation
                JOINT rMid2
                {
                  OFFSET -3.10165 -0.590103 1.0647
                  CHANNELS 3 Zrotation Xrotation Yrotation
                  End Site
                  {
                    OFFSET -2.48547 -0.328903 0.83742
                  }
                }
              }
              JOINT rRing1
              {
                OFFSET -8.82822 0.546677 1.51678
                CHANNELS 3 Zrotation Xrotation Yrotation
                JOINT rRing2
                {
                  OFFSET -2.60934 -0.819778 -0.0198488
                  CHANNELS 3 Zrotation Xrotation Yrotation
                  End Site
                  {
                    OFFSET -2.33842 -0.294052 0.168128
                  }
                }
              }
              JOINT rPinky1
              {
                OFFSET -8.27202 -0.0477905 -0.4584
                CHANNELS 3 Zrotation Xrotation Yrotation
                JOINT rPinky2
                {
                  OFFSET -1.82734 -0.647385 -0.700984
                  CHANNELS 3 Zrotation Xrotation Yrotation
                  End Site
                  {
                    OFFSET -1.69225 -0.51767 -0.607171
                  }
                }
              }
            }
          }
        }
      }
      JOINT lCollar
      {
        OFFSET 2.68224 19.2634 -4.8768
        CHANNELS 3 Zrotation Xrotation Yrotation
        JOINT lShldr
        {
          OFFSET 8.77824 -1.95073 1.46304
          CHANNELS 3 Zrotation Xrotation Yrotation
          JOINT lForeArm
          {
            OFFSET 28.1742 -1.7115 0.48768
            CHANNELS 3 Zrotation Xrotation Yrotation
            JOINT lHand
            {
              OFFSET 22.5879 0.773209 7.07136
              CHANNELS 3 Zrotation Xrotation Yrotation
              JOINT lThumb1
              {
                OFFSET 1.2192 -0.487915 3.41376
                CHANNELS 3 Zrotation Xrotation Yrotation
                JOINT lThumb2
                {
                  OFFSET 3.37035 -0.52449 3.41376
                  CHANNELS 3 Zrotation Xrotation Yrotation
                  End Site
                  {
                    OFFSET 1.78271 -1.18214 1.43049
                  }
                }
              }
              JOINT lIndex1
              {
                OFFSET 7.75947 0.938293 5.60832
                CHANNELS 3 Zrotation Xrotation Yrotation
                JOINT lIndex2
                {
                  OFFSET 2.54057 -0.884171 1.56538
                  CHANNELS 3 Zrotation Xrotation Yrotation
                  End Site
                  {
                    OFFSET 1.62519 -0.234802 1.16502
                  }
                }
              }
              JOINT lMid1
              {
                OFFSET 8.24714 1.18213 3.41376
                CHANNELS 3 Zrotation Xrotation Yrotation
                JOINT lMid2
                {
                  OFFSET 3.10165 -0.590103 1.0647
                  CHANNELS 3 Zrotation Xrotation Yrotation
                  End Site
                  {
                    OFFSET 2.48547 -0.328903 0.83742
                  }
                }
              }
              JOINT lRing1
              {
                OFFSET 8.82822 0.546677 1.51678
                CHANNELS 3 Zrotation Xrotation Yrotation
                JOINT lRing2
                {
                  OFFSET 2.60934 -0.819778 -0.0198488
                  CHANNELS 3 Zrotation Xrotation Yrotation
                  End Site
                  {
                    OFFSET 2.33842 -0.294052 0.168128
                  }
                }
              }
              JOINT lPinky1
              {
                OFFSET 8.27202 -0.0477905 -0.4584
                CHANNELS 3 Zrotation Xrotation Yrotation
                JOINT lPinky2
                {
                  OFFSET 1.82734 -0.647385 -0.700984
                  CHANNELS 3 Zrotation Xrotation Yrotation
                  End Site
                  {
                    OFFSET 1.69225 -0.51767 -0.607171
                  }
                }
              }
            }
          }
        }
      }
    }
  }
  JOINT rButtock
  {
    OFFSET -8.77824 4.35084 1.2192
    CHANNELS 3 Zrotation Xrotation Yrotation
    JOINT rThigh
    {
      OFFSET 0 -1.70687 -2.19456
      CHANNELS 3 Zrotation Xrotation Yrotation
      JOINT rShin
      {
        OFFSET 0 -36.8199 0.73152
        CHANNELS 3 Zrotation Xrotation Yrotation
        JOINT rFoot
        {
          OFFSET 0.73152 -45.1104 -5.12064
          CHANNELS 3 Zrotation Xrotation Yrotation
          End Site
          {
            OFFSET -1.1221 -3.69964 12.103
          }
        }
      }
    }
  }
  JOINT lButtock
  {
    OFFSET 8.77824 4.35084 1.2192
    CHANNELS 3 Zrotation Xrotation Yrotation
    JOINT lThigh
    {
      OFFSET 0 -1.70687 -2.19456
      CHANNELS 3 Zrotation Xrotation Yrotation
      JOINT lShin
      {
        OFFSET 0 -36.8199 0.73152
        CHANNELS 3 Zrotation Xrotation Yrotation
        JOINT lFoot
        {
          OFFSET -0.73152 -45.1104 -5.12064
          CHANNELS 3 Zrotation Xrotation Yrotation
          End Site
          {
            OFFSET 1.1221 -3.69964 12.103
          }
        }
      }
    }
  }
}
MOTION
Frames:	4
Frame Time:	0.00833333
171.795 85.1731 6.57854 0.0 0.0 0.0 0.512931 -0.00341812 0.0146931 0.141686 -0.00540195 0.0245503 9.42814e-15 -1.59028e-15 2.48481e-17 2.78609e-14 -6.36111e-15 4.50372e-17 -0.0 0.0 0.0 -0.0 0.0 0.0 4.57088e-15 1.35888e-18 2.48481e-16 9.89936e-14 1.05604e-16 1.19271e-15 1.676e-12 -5.03919e-13 -1.90833e-14 1.91875e-11 4.92737e-13 5.725e-14 4.52563e-11 -2.53943e-14 1.11319e-13 7.81411e-11 -4.77083e-14 1.86858e-13 4.52601e-11 -2.42517e-14 9.85972e-14 7.73091 5.47488 0.417314 4.52552e-11 -2.5345e-14 1.11319e-13 2.90554 0.965183 0.102902 4.52649e-11 -2.55438e-14 1.09729e-13 10.2786 0.731801 0.0259123 4.52511e-11 -2.46493e-14 1.24042e-13 2.22167 -0.733487 -0.20892 4.47413e-15 -7.76503e-19 -2.48481e-16 9.5872e-14 2.48481e-17 0.0 1.67566e-12 4.99347e-13 -6.36111e-15 1.91789e-11 -5.15126e-13 6.99722e-14 4.5244e-11 -3.90338e-14 1.11319e-13 7.81478e-11 -7.31528e-14 1.98785e-13 4.52398e-11 -3.93594e-14 1.17681e-13 -7.73091 5.47488 -0.417314 4.52439e-11 -3.90612e-14 1.11319e-13 -2.90554 0.965183 -0.102902 4.52426e-11 -3.91606e-14 1.12115e-13 -10.2786 0.731801 -0.0259123 4.52464e-11 -3.73715e-14 1.01778e-13 -2.22167 -0.733487 0.20892 -2.03217e-16 0.0 -3.88251e-19 0.860025 -4.41146 -0.0729711 -0.00213136 2.43941 -0.0112544 -0.47446 1.97259 0.0938401 2.03217e-16 0.0 3.88251e-19 -0.0776744 -2.42096 0.023254 0.00766769 -1.16603 0.0659986 0.465762 3.58744 -0.125214
163.419 84.827 1.80321 70.2546 -84.5524 -73.5206 -1.37847 2.60067 0.251401 0.39351 0.760083 0.0109331 1.89397 1.97663 0.907486 -1.59564 0.429534 1.26361 -0.0 0.0 0.0 -0.0 0.0 0.0 -1.61272e-14 -8.93633e-13 1.8904e-15 21.2116 9.6999 -1.54798 -6.6542 -3.74208 9.4951 0.0599822 -5.44706 -0.753177 3.4319e-11 -1.62269e-11 1.06619e-10 5.77356e-11 -2.90308e-11 1.84732e-10 3.43222e-11 -1.62266e-11 1.0661e-10 7.73091 5.47488 0.417314 3.43189e-11 -1.6227e-11 1.06618e-10 2.90554 0.965183 0.102902 3.43275e-11 -1.6227e-11 1.06616e-10 10.2786 0.731801 0.0259123 3.43153e-11 -1.62258e-11 1.06627e-10 2.22167 -0.733487 -0.20892 -1.62191e-14 -8.93635e-13 1.44546e-15 -19.8803 10.628 -2.33543 5.61267 -2.90595 -8.3468 -0.00127552 -0.915777 0.128659 3.66559e-11 -4.25706e-12 -8.62189e-11 6.28063e-11 -7.45865e-12 -1.49436e-10 3.66454e-11 -4.25688e-12 -8.62069e-11 -7.73091 5.47488 -0.417314 3.66542e-11 -4.25674e-12 -8.62158e-11 -2.90554 0.965183 -0.102902 3.66514e-11 -4.257e-12 -8.62173e-11 -10.2786 0.731801 -0.0259123 3.66584e-11 -4.25596e-12 -8.62255e-11 -2.22167 -0.733487 0.20892 -2.03217e-16 0.0 -3.88251e-19 0.173702 -10.7944 4.18362 0.0522742 9.86881 0.209252 -2.04798 -6.20001 -8.45691 2.03217e-16 0.0 3.88251e-19 -3.60827 1.80037 -1.83785 -0.0377533 3.80304 -0.104913 0.890691 -1.45896 4.65069
162.04 84.5574 1.68549 69.8007 -84.4681 -73.196 -3.46628 5.3415 0.510197 0.669091 1.57199 -0.00448667 3.82973 4.06737 1.86756 -3.29481 0.873877 2.59391 -0.0 0.0 0.0 -0.0 0.0 0.0 -3.94565e-14 -1.90607e-12 4.04713e-15 44.2535 19.9552 -3.34507 -12.3694 -7.36703 19.6769 -0.0349749 -11.1639 -1.56705 3.23984e-11 -2.0954e-11 2.36242e-10 5.26934e-11 -3.83891e-11 4.09454e-10 3.24009e-11 -2.09546e-11 2.36238e-10 7.73091 5.47488 0.417314 3.23994e-11 -2.09542e-11 2.3624e-10 2.90554 0.965183 0.102902 3.24069e-11 -2.09539e-11 2.36238e-10 10.2786 0.731801 0.0259123 3.23963e-11 -2.09523e-11 2.36245e-10 2.22167 -0.733487 -0.20892 -3.95444e-14 -1.90607e-12 3.65577e-15 -39.8551 21.8521 -5.12364 10.6567 -5.79039 -17.2708 0.00219386 -1.93683 0.272233 5.05316e-11 -1.26713e-11 -1.99514e-10 8.61292e-11 -2.20981e-11 -3.45778e-10 5.05143e-11 -1.26706e-11 -1.99495e-10 -7.73091 5.47488 -0.417314 5.05281e-11 -1.26706e-11 -1.99507e-10 -2.90554 0.965183 -0.102902 5.05239e-11 -1.26711e-11 -1.99511e-10 -10.2786 0.731801 -0.0259123 5.05343e-11 -1.26707e-11 -1.99517e-10 -2.22167 -0.733487 0.20892 -2.03217e-16 0.0 -3.88251e-19 0.495589 -17.4213 9.04298 0.0469771 17.6972 0.463242 -6.45306 -14.3812 -18.0351 2.03217e-16 0.0 3.88251e-19 -7.09899 6.37099 -3.89358 -0.0552654 8.78784 -0.288774 2.28179 -6.80425 9.8349
160.623 84.4557 1.57965 68.4271 -84.2952 -72.0212 -5.22634 7.8083 0.730817 0.898249 2.29105 -0.0163173 5.4933 5.92392 2.73546 -4.84374 1.2861 3.79168 -0.0 0.0 0.0 -0.0 0.0 0.0 -5.75234e-14 -2.6809e-12 5.17423e-15 65.3966 29.0084 -5.2359 -16.3655 -9.99457 28.903 -0.264919 -16.3296 -2.34393 1.24443e-11 -4.863e-11 3.19635e-10 1.69247e-11 -8.69971e-11 5.53822e-10 1.24464e-11 -4.86314e-11 3.19633e-10 7.73091 5.47488 0.417314 1.24462e-11 -4.86304e-11 3.19632e-10 2.90554 0.965183 0.102902 1.24528e-11 -4.86299e-11 3.19629e-10 10.2786 0.731801 0.0259123 1.24436e-11 -4.8628e-11 3.19633e-10 2.22167 -0.733487 -0.20892 -5.76055e-14 -2.6809e-12 4.83334e-15 -56.6641 31.653 -8.09685 14.3674 -7.97931 -25.2695 0.00852386 -2.74728 0.386373 1.94796e-11 -1.26931e-11 -2.58879e-10 3.21232e-11 -2.22296e-11 -4.48707e-10 1.94566e-11 -1.26919e-11 -2.58856e-10 -7.73091 5.47488 -0.417314 1.94746e-11 -1.26921e-11 -2.5887e-10 -2.90554 0.965183 -0.102902 1.94691e-11 -1.26927e-11 -2.58876e-10 -10.2786 0.731801 -0.0259123 1.94823e-11 -1.26931e-11 -2.5888e-10 -2.22167 -0.733487 0.20892 -2.03217e-16 0.0 -3.88251e-19 1.83739 -23.0538 13.5764 -0.0255379 24.7261 0.705655 -12.6405 -20.443 -27.2526 2.03217e-16 0.0 3.88251e-19 -9.83795 10.1971 -5.64679 -0.0377193 13.7408 -0.459156 4.27375 -11.2083 14.4795
